<?xml version="1.0" encoding="utf-8"?>
<!-- Generator: Adobe Illustrator 22.0.0, SVG Export Plug-In . SVG Version: 6.00 Build 0)  -->
<svg version="1.1" id="Layer_1" xmlns="http://www.w3.org/2000/svg" xmlns:xlink="http://www.w3.org/1999/xlink" x="0px" y="0px"
	 viewBox="0 0 512 512" style="enable-background:new 0 0 512 512;" xml:space="preserve">
<style type="text/css">
	.st0{fill:#FFFFFF;}
	.st1{display:none;}
</style>
<g>
	<path class="st0" d="M407.6,426.8c8.1,8.1,9.6,14.3,5,20.4c-5.4-4.7-10.2-4.5-14.3,0.6c-0.4,0.5-0.4,1.5-0.5,2.3
		c0.8-0.1,1.6-0.1,2.3-0.5c0.7-0.3,1.1-1.1,1.8-1.6c3.3-2.6,5.5-2.2,9,1.6c-2.1,3.9-5.8,5-9.8,5c-32.2-0.1-318.7-0.2-356.3,0
		c-19.3,0-20.3-29,0.9-29c27.7,0,322-0.1,354.3,0c0.2,0,0.4-0.1,1-0.2c0.5-2.7,0.8-5.6,1.4-8.5c2.2-10.1,7-18.3,17.3-22.2
		c1.2-0.4,1.9-2.5,2.5-3.9c1.5-3.6,5.1-5.7,8.9-4.7c3.8,1,6.2,4.8,5.2,8.8c-0.7,3.5-4.1,6.1-7.9,5.6c-1.1-0.1-2.5-0.4-3.1-1.1
		c-2.2-2.3-4.2-1.4-6.5-0.3c-9.4,4.6-11.8,13.3-13,22.7c0.8-1,1.6-2,2.4-3c5.4-7,12.4-11.1,21.4-11.1c1.7,0,2.5-0.5,3.2-2.2
		c1.3-3.2,4.9-4.9,8.2-4.2c3.6,0.8,6,3.5,6.3,7.6c0.3,3.4-1.7,6.6-4.9,7.9c-3.2,1.2-7,0.3-8.8-2.7c-1.3-2.1-2.7-2.6-5-2.5
		C419.9,411.8,412.9,416.9,407.6,426.8z M404.6,436.6c0-3-5.5-3-5.5,0.2C399.1,440.2,404.6,440.2,404.6,436.6z"/>
</g>
<g class="st1">
	<path class="st0" d="M313.2,425.7c29.4,0,58.2,0,87.1,0c0.9-4,1.4-8,2.5-11.8c2.6-8.9,8.2-15.3,17.2-18.8c1.1-0.5,2.2-1.6,2.6-2.7
		c1.4-4.1,3.8-6.3,7.6-6.5c3.4-0.2,6.6,1.8,7.7,4.9c1.1,3.1,0.2,6.5-2.5,8.6c-3,2.3-6.3,2-10.1-0.2c-1.1-0.6-2.8-0.7-3.9-0.4
		c-9.4,3.3-16.2,13.3-16,23.5c1.2-1.6,2.2-2.8,3.2-4c5.7-6.8,12.9-10.5,22.1-10.9c1.3,0,3.1-1.1,3.9-2.1c2.5-3,5.6-4.4,9.3-3.4
		c3.6,1,6,4,6,7.5c0,3.3-2.3,6.4-5.6,7.5c-3.4,1.1-7.4,0-9.3-3.2c-1.2-2-2.7-2.4-4.8-2.3c-11.2,0.4-17.7,6.9-23,15.6
		c4.3,2.9,7.9,6.5,8,11.8c0,2.7-0.9,5.6-1.3,8c-3.5-1.2-6.4-2.9-9.2-2.8c-2.3,0.1-4.7,2.1-6.8,3.6c-0.7,0.5-0.7,1.8-1,2.8
		c1-0.3,1.9-0.5,2.8-0.9c1.7-0.9,3.2-2.7,4.9-2.7c2.1,0,4.3,1.4,7,2.4c-3.4,3.8-7.2,5.2-11.3,5.2c-29.8,0.1-59.5,0.3-89.3,0
		c-16.6-0.2-26.6-10.4-27.6-27.4c-0.5-8.7,1.2-43.5-11.8-43.5s-16.7,44.8-23.2,54.5c-6.5,9.6-15.8,15.5-27.6,15.7
		c-26.1,0.7-52.1,0.6-78.2,0.6c-8.5,0-14.9-6.8-14.6-14.6c0.3-7.7,6.7-13.5,15.3-13.6c22.4-0.1,69.7,0,70.8,0
		c7.6-0.3,10.5-2.2,11.9-9.3c1.8-8.7,3-17.6,4.5-26.3c1.4-8.4,3.9-16.5,9.5-23.3c7.8-9.8,18.6-13.1,31-13
		c25.5,0.3,38.6,15.9,40.6,37.4C312.4,400.2,312.9,422.8,313.2,425.7z M403,436.3c0-2.9-4.7-2.9-4.7,0
		C398.4,437.8,403,438.1,403,436.3z"/>
</g>
</svg>
