<?xml version="1.0" encoding="utf-8"?>
<!-- Generator: Adobe Illustrator 22.0.0, SVG Export Plug-In . SVG Version: 6.00 Build 0)  -->
<svg version="1.1" id="Layer_1" xmlns="http://www.w3.org/2000/svg" xmlns:xlink="http://www.w3.org/1999/xlink" x="0px" y="0px"
	 viewBox="0 0 512 512" style="enable-background:new 0 0 512 512;" xml:space="preserve">
<style type="text/css">
	.st0{display:none;}
	.st1{fill:#FFFFFF;}
</style>
<g>
	<path class="st0" d="M-0.3,0.2c170.9,0,341.7,0,512.6,0 M384.4,397.7c5.3-9.8,12.3-14.8,20.8-15.2c2.2-0.1,3.7,0.4,5,2.5
		c1.8,3,5.5,3.9,8.7,2.7c3.2-1.2,5.2-4.4,4.9-7.8c-0.3-4-2.6-6.7-6.2-7.5c-3.2-0.7-6.8,1-8.1,4.2c-0.7,1.7-1.5,2.2-3.2,2.2
		c-9,0-15.9,4.1-21.2,11c-0.8,1-1.6,2-2.4,3c1.3-9.4,3.7-18,12.9-22.5c2.2-1.1,4.2-2.1,6.4,0.3c0.7,0.7,2,1,3.1,1.1
		c3.7,0.4,7.1-2.1,7.8-5.6c0.8-4-1.5-7.7-5.2-8.7c-3.6-1-7.3,1-8.8,4.7c-0.6,1.4-1.3,3.5-2.5,3.9c-10.3,3.9-14.9,12-17.2,22
		c-0.6,2.8-1,5.7-1.4,8.4c-0.6,0.1-0.8,0.2-1,0.2c-31.9,0-323.8,0-351.3,0c-4.2,0-7.8,0.9-10.9,4.3c-4.1,4.5-5.5,9.5-3.2,15
		c2.4,5.7,6.5,9.6,13.2,9.5c37.4-0.3,321.4-0.1,353.3,0c4,0,7.6-1.1,9.7-5c-3.4-3.8-5.6-4.2-8.9-1.6c-0.6,0.5-1.1,1.2-1.8,1.6
		c-0.7,0.3-1.5,0.3-2.3,0.5c0.2-0.8,0.1-1.7,0.5-2.3c4.1-5.1,8.8-5.3,14.2-0.6C393.9,411.9,392.4,405.7,384.4,397.7z"/>
	<path class="st1" d="M384.4,397.7c8,8,9.5,14.2,5,20.2c-5.4-4.7-10.1-4.5-14.2,0.6c-0.4,0.5-0.4,1.5-0.5,2.3
		c0.8-0.1,1.6-0.1,2.3-0.5c0.7-0.3,1.1-1.1,1.8-1.6c3.3-2.6,5.5-2.2,8.9,1.6c-2.1,3.9-5.8,5-9.7,5c-31.9-0.1-316-0.2-353.3,0
		c-6.7,0-10.8-3.8-13.2-9.5c-2.3-5.5-0.8-10.5,3.2-15c3.1-3.4,6.7-4.3,10.9-4.3c27.5,0,319.3-0.1,351.3,0c0.2,0,0.4-0.1,1-0.2
		c0.5-2.7,0.8-5.6,1.4-8.4c2.2-10,6.9-18.1,17.2-22c1.2-0.4,1.9-2.5,2.5-3.9c1.5-3.6,5.1-5.7,8.8-4.7c3.8,1,6.1,4.8,5.2,8.7
		c-0.7,3.5-4.1,6-7.8,5.6c-1.1-0.1-2.5-0.4-3.1-1.1c-2.2-2.3-4.2-1.4-6.4-0.3c-9.3,4.6-11.7,13.2-12.9,22.5c0.8-1,1.6-2,2.4-3
		c5.4-6.9,12.3-11,21.2-11c1.7,0,2.5-0.5,3.2-2.2c1.3-3.2,4.9-4.9,8.1-4.2c3.6,0.8,5.9,3.5,6.2,7.5c0.3,3.4-1.7,6.5-4.9,7.8
		c-3.2,1.2-6.9,0.3-8.7-2.7c-1.3-2.1-2.7-2.6-5-2.5C396.6,382.9,389.7,387.9,384.4,397.7z M381.5,407.5c0-3-5.5-3-5.5,0.2
		C376,411,381.5,411,381.5,407.5z"/>
</g>
</svg>
