<?xml version="1.0" encoding="utf-8"?>
<!-- Generator: Adobe Illustrator 22.0.0, SVG Export Plug-In . SVG Version: 6.00 Build 0)  -->
<svg version="1.1" id="Layer_1" xmlns="http://www.w3.org/2000/svg" xmlns:xlink="http://www.w3.org/1999/xlink" x="0px" y="0px"
	 viewBox="0 0 512 512" style="enable-background:new 0 0 512 512;" xml:space="preserve">
<style type="text/css">
	.st0{display:none;}
	.st1{fill:#FFFFFF;}
</style>
<g>
	<path class="st0" d="M0.8,0.4c170.8,0,341.6,0,512.4,0 M290.9,439.3c-0.2-3.2-0.5-6-0.6-8.8c-0.3-9.6,0-19.2-0.9-28.8
		c-2.1-23.4-15.8-40.6-42.5-40.9c-13-0.2-24.3,3.4-32.5,14.2c-5.8,7.5-8.3,16.3-9.9,25.5c-1.6,9.6-2.8,19.2-4.7,28.8
		c-1.5,7.8-4.6,9.9-12.5,10.2c-1.3,0-2.6,0-3.8,0c-23.5,0-46.9,0-70.4,0c-8.9,0-15.7,6.4-16,14.9c-0.3,8.5,6.4,15.9,15.3,16
		c27.3,0,54.6,0.1,81.9-0.7c12.3-0.4,22.1-6.8,28.9-17.2c6.9-10.5,8.4-22.6,10.1-34.7c1-6.9,2.5-13.8,3.9-20.7
		c0.8-3.6,3.2-5.4,7-5.2c1.5,0.1,3.1,0.1,4.6,0.2c5.2,0.4,7.6,2.1,8.6,7.1c0.9,4.2,1.4,8.6,1.6,12.9c0.4,9.5,0.4,19,0.9,28.4
		c1,18.5,11.5,29.7,28.9,29.9c31.2,0.3,62.3,0.1,93.5,0c4.3,0,8.1-1.5,11.8-5.7c-2.8-1.1-5.1-2.6-7.3-2.6c-1.7,0-3.4,2-5.1,3
		c-0.9,0.5-1.9,0.7-2.9,1c0.3-1.1,0.3-2.6,1-3.1c2.2-1.6,4.7-3.8,7.1-3.9c2.9-0.1,5.9,1.8,9.6,3.1c0.4-2.5,1.4-5.6,1.4-8.7
		c-0.1-5.8-3.9-9.7-8.4-12.9c5.5-9.6,12.4-16.7,24.1-17.1c2.2-0.1,3.7,0.3,5,2.5c2,3.5,6.1,4.7,9.7,3.5c3.5-1.2,5.9-4.5,5.9-8.2
		c0-3.8-2.5-7.1-6.3-8.2c-3.7-1.1-7.1,0.4-9.7,3.7c-0.9,1.2-2.7,2.3-4.1,2.3c-9.6,0.3-17.2,4.5-23.1,11.9c-1.1,1.3-2.1,2.7-3.4,4.4
		c-0.3-11.2,7-22.2,16.8-25.7c1.2-0.4,3-0.3,4.1,0.4c4,2.5,7.5,2.7,10.6,0.2c2.8-2.2,3.8-6,2.6-9.4c-1.2-3.3-4.5-5.5-8.1-5.4
		c-4,0.2-6.5,2.6-8,7.1c-0.4,1.2-1.6,2.5-2.7,3c-9.4,3.9-15.4,10.9-18,20.6c-1.1,4.2-1.7,8.5-2.6,12.9
		C351.9,439.3,321.7,439.3,290.9,439.3z"/>
	<path class="st1" d="M290.9,439.3c30.8,0,61,0,91.2,0c0.9-4.4,1.5-8.7,2.6-12.9c2.7-9.7,8.6-16.7,18-20.6c1.2-0.5,2.3-1.8,2.7-3
		c1.5-4.5,4-6.9,8-7.1c3.6-0.2,6.9,2,8.1,5.4c1.2,3.4,0.2,7.1-2.6,9.4c-3.1,2.5-6.6,2.2-10.6-0.2c-1.1-0.7-2.9-0.8-4.1-0.4
		c-9.8,3.6-17,14.5-16.8,25.7c1.3-1.7,2.3-3.1,3.4-4.4c6-7.4,13.5-11.5,23.1-11.9c1.4,0,3.2-1.2,4.1-2.3c2.6-3.3,5.9-4.8,9.7-3.7
		c3.8,1.1,6.3,4.4,6.3,8.2c0,3.6-2.4,7-5.9,8.2c-3.6,1.2-7.7,0-9.7-3.5c-1.3-2.2-2.8-2.6-5-2.5c-11.7,0.4-18.5,7.5-24.1,17.1
		c4.5,3.2,8.3,7.1,8.4,12.9c0,3-0.9,6.1-1.4,8.7c-3.7-1.3-6.7-3.2-9.6-3.1c-2.4,0.1-4.9,2.3-7.1,3.9c-0.7,0.5-0.7,2-1,3.1
		c1-0.3,2-0.5,2.9-1c1.8-1,3.4-3,5.1-3c2.2,0,4.5,1.5,7.3,2.6c-3.6,4.2-7.5,5.7-11.8,5.7c-31.2,0.1-62.3,0.3-93.5,0
		c-17.4-0.2-27.9-11.4-28.9-29.9c-0.5-9.5-0.5-19-0.9-28.4c-0.2-4.3-0.7-8.7-1.6-12.9c-1-5-3.4-6.7-8.6-7.1
		c-1.5-0.1-3.1-0.1-4.6-0.2c-3.8-0.2-6.2,1.6-7,5.2c-1.5,6.9-2.9,13.8-3.9,20.7c-1.8,12.1-3.3,24.1-10.1,34.7
		c-6.8,10.5-16.6,16.9-28.9,17.2c-27.3,0.8-54.6,0.7-81.9,0.7c-8.9,0-15.6-7.4-15.3-16c0.3-8.4,7-14.8,16-14.9
		c23.5-0.1,46.9,0,70.4,0c1.3,0,2.6,0,3.8,0c8-0.3,11-2.4,12.5-10.2c1.9-9.5,3.1-19.2,4.7-28.8c1.5-9.2,4.1-18,9.9-25.5
		c8.2-10.7,19.5-14.3,32.5-14.2c26.7,0.3,40.4,17.4,42.5,40.9c0.9,9.5,0.6,19.2,0.9,28.8C290.4,433.3,290.6,436.1,290.9,439.3z
		 M385,450.9c0-3.2-4.9-3.2-4.9,0C380.1,452.5,385,452.8,385,450.9z"/>
</g>
</svg>
