<?xml version="1.0" encoding="utf-8"?>
<!-- Generator: Adobe Illustrator 22.0.0, SVG Export Plug-In . SVG Version: 6.00 Build 0)  -->
<svg version="1.1" id="vector" xmlns="http://www.w3.org/2000/svg" xmlns:xlink="http://www.w3.org/1999/xlink" x="0px" y="0px"
	 viewBox="0 0 1000 999" enable-background="new 0 0 1000 999" xml:space="preserve">
<path id="kentrikh_makedonia" fill="#F2F2F2" d="M988.8,741.4c2.3,4.2-1,9.4-5.5,8.8c-53-3.9-181.3-172.5-237.2-93.7
	c-33.5,47.2,105.8,114.2,106.7,144.8c-1.3,19.5-4.6,26.4-15.9,35.8c-4.9,3.9-49.8-18.9-52.7-21.5c-44.6-42.3-158.5-196.9-177-89.2
	c-7.8,44.6,94,95.7,136.7,121.1c4.9,2.9,3.3,10.4-2.3,11.1c-40.4,4.9-77.8-23.1-121.4-18.5c-3.3,0.3-6.2-2-6.5-5.2
	c-15.3-105.8-52.7-163-167.3-196.9c-2.3-0.7-4.2-2.9-4.2-5.2c-0.3-10.7-11.4-31.2-19.2-43.3c-2.3-3.9,0-8.8,4.6-9.1
	c80.7-9.1,8.5-84.9-13.3-39.7c-7.5,15.3-53.7,45.9-77.1,54.7c-3.9,1.3-5.2,6.2-2.6,9.4c47.8,63.8-108.4,76.8-168.9,128.9
	c-3.6,3.3-9.1,1-9.8-3.9c-3.9-28.6-16.3-108.7-103.5-152.9c-53-27-48.5-188.1-25.7-196.6c1.3-0.7,88.2-62.8,127.9-87.2
	c106.4-64.8,198.8-103.8,276.6-126.3c141.2-41,234.6-27,278.6-11.1c1.3,0.7,2.6,1.6,3.3,2.9c28,54,42,82.3,98.9,131.5
	c29.6,25.4,94,52.1,75.5,100.6c-36.8,95.7-234.6,69.6-78.1,171.5c3.9,2.6,3.6,8.1-0.3,10.4c-51.4,29.3,27.3,94.7,36.4,46.9
	c1-4.6,6.5-6.5,10.1-3.3C899,655.5,954,677,988.8,741.4z"/>
</svg>
