<?xml version="1.0" encoding="utf-8"?>
<!-- Generator: Adobe Illustrator 22.0.0, SVG Export Plug-In . SVG Version: 6.00 Build 0)  -->
<svg version="1.1" id="vector" xmlns="http://www.w3.org/2000/svg" xmlns:xlink="http://www.w3.org/1999/xlink" x="0px" y="0px"
	 viewBox="0 0 1000 999" enable-background="new 0 0 1000 999" xml:space="preserve">
<path id="pelopponisos" fill="#F2F2F2" d="M909.5,476.2c-254.6-168-254.6-168-220.2-19.6c4.9,22.1-14.4,22.8,18.6,59.6
	c74,54,97.5,315.2,97.5,315.2c0.4,34.4,4.6,59.6,37.9,74.3c4.2,11.2,0,35.8,16.1,53.3c-50.8-18.6-116.4-112.6-149-114.3
	c10.5-96.4-95.4-29.5-121,30.9c-3.5,8.1-2.8,73.6-8.4,104.1c-33.7-33-48.4-132.5-40.7-155.3c-20-17.2-103.4-158.5-92.9-155.3
	c-83.8-24.5-114,62.8-72.2,111.9c-61.4,72.2-114-53.3-121.7-81.4c-67-91.5,11.6-98.2,13.3-177.1c1.8-71.5-97.5-191.1-151.5-159.9
	c16.1-81.4-79.6-74.3-80.3-118.2c-1.1-47.7,94.6-23,104.8-173.9c4.2,6,121.7,2.5,222.3-55.4c34.7-20,62.4,46.3,91.9,61
	c64.2,31.9,205.1,75.7,205.1,75.7S862.9,208.6,852,281.9c-1.4,10.2-13,42.1-0.7,77.1c7,17.8,87.7,62.4,86.6,64.9
	C974.1,449.1,955,485.6,909.5,476.2z"/>
</svg>
