<?xml version="1.0" encoding="utf-8"?>
<!-- Generator: Adobe Illustrator 22.0.0, SVG Export Plug-In . SVG Version: 6.00 Build 0)  -->
<svg version="1.1" id="vector" xmlns="http://www.w3.org/2000/svg" xmlns:xlink="http://www.w3.org/1999/xlink" x="0px" y="0px"
	 viewBox="0 0 486 485" style="enable-background:new 0 0 486 485;" xml:space="preserve">
<style type="text/css">
	.st0{clip-path:url(#SVGID_2_);fill:#F58321;}
	.st1{clip-path:url(#SVGID_2_);fill:#EF1621;}
	.st2{clip-path:url(#SVGID_2_);fill:#77BC45;}
	.st3{clip-path:url(#SVGID_2_);fill:#4AAAEA;}
	.st4{clip-path:url(#SVGID_2_);fill:#00ACAD;}
	.st5{clip-path:url(#SVGID_2_);fill:#F575A3;}
	.st6{clip-path:url(#SVGID_2_);fill:#592C94;}
</style>
<g>
	<defs>
		<circle id="SVGID_1_" cx="239.7" cy="244.9" r="238.1"/>
	</defs>
	<clipPath id="SVGID_2_">
		<use xlink:href="#SVGID_1_"  style="overflow:visible;"/>
	</clipPath>
	<path class="st0" d="M123.2,483.8l30.6-175.4L189,314l15.5,20.9l-32.8,149.3L123.2,483.8z"/>
	<path class="st0" d="M266.1,360.6l-27.8-50.3l0.1-81.6l13.6-18l44-20.1l54.6,28l81.2-19.9l-0.1,52.3l-29,0l0.1,144l-116.6,0
		L266.1,360.6z"/>
	<path class="st0" d="M176.8,474.5l61.5-162.3l110.4,199.1L176.8,474.5z"/>
	<path class="st0" d="M175.3,473.9l30.2-139.1L237,312"/>
	<path class="st0" d="M154.6,306.9l7.2-43.9H238l-0.1,17.7l-12.3,0.1L189,312.5L154.6,306.9z"/>
	<path class="st0" d="M330.2,476l-43.3-79.4l151,0.3L330.2,476z"/>
	<path class="st0" d="M167.7,228.6h69.7v32.5H162L167.7,228.6z"/>
	<path class="st0" d="M167.9,227.5l3.1-16.9l38.9-21.3l-0.3,14.6l-24.4,23.5L167.9,227.5z"/>
	<path class="st0" d="M403.9,394.9v-51.4H442V395L403.9,394.9z"/>
	<path class="st0" d="M443.3,370V251.4h34.5V370H443.3z"/>
	<path class="st0" d="M403.8,342.6v-91.1h38.1v91.1H403.8z"/>
	<path class="st0" d="M210.2,227.5v-38.3l40.7-0.2v20.6l-13.5,17.7L210.2,227.5z"/>
	<path class="st0" d="M204.8,333.7l-15.2-20.5l35.6-30.6l12.1,0l-0.3,27.9L204.8,333.7z"/>
	<path class="st0" d="M186.2,227.4l23.3-22.6l-0.1,22.5L186.2,227.4z"/>
	<path class="st0" d="M252,209.6l0-41.4l43.3,21.9L252,209.6z"/>
	<path class="st0" d="M433.4,250.7v-52.3l44.4-10.6v62.9L433.4,250.7L433.4,250.7z"/>
	<path class="st0" d="M210.5,188.9l40.5-21.4v16.9v4.1L210.5,188.9z"/>
	<path class="st1" d="M348.7,216L252,167.2l14.7-125.4L335.9,0L475,97.5L348.7,216z"/>
	<path class="st1" d="M420,150.6l42.7-39.1l2,38.4L420,150.6z"/>
	<path class="st1" d="M350,216.7l69.5-65.2l51.3-0.6v37L350,216.7z"/>
	<path class="st2" d="M1.2,95.3h100.5l13.6,98.2l-92.1-49.6L1.2,95.3z"/>
	<path class="st2" d="M1.1,94.5V8.4h100.7v86.1L1.1,94.5L1.1,94.5z"/>
	<path class="st2" d="M116.9,194.1l-13.9-99.2l0-6.6l38.2-0.1l25.9,31.5l-13.5,58.3L116.9,194.1z"/>
	<path class="st2" d="M164,181.2l-9.2-3.2l13.4-58l14.4,0l-0.1,67.7L164,181.2z"/>
	<path class="st2" d="M170.9,209.5l12.8-20l0.2-101.5l76.2,0l-9.2,78.8L170.9,209.5z"/>
	<path class="st2" d="M103,87.3V43.7h53.1v43.6H103z"/>
	<path class="st2" d="M104.5,43.3v-36h51.6v36H104.5z"/>
	<path class="st2" d="M156.6,87.1V59h53.3v28.1H156.6z"/>
	<path class="st2" d="M156.6,58.4v-26h53.3v26H156.6z"/>
	<path class="st2" d="M156.6,31.9V7.6h53.3v24.3H156.6z"/>
	<path class="st2" d="M211.2,86l0.1-77.8l34.8,33.1L211.2,86z"/>
	<path class="st2" d="M211.3,87.1l35.9-45.6l18.9,0.2l-5.8,45.4L211.3,87.1z"/>
	<path class="st2" d="M142.1,88.2l40.5-0.1l-0.1,30.8l-14.5,0.1L142.1,88.2z"/>
	<path class="st2" d="M118.2,194.1l35.9-15.1l28.3,9.9l-12.9,20.6L118.2,194.1z"/>
	<path class="st3" d="M5.7,201.2l6.6-59.8l101.7,52.7L5.7,201.2z"/>
	<path class="st3" d="M3,292.9l-1.3-90l25.4-1.4l0.3,70.6L3,292.9z"/>
	<path class="st3" d="M27.9,222.5v-21.2l86.7-6.2L84,221.7L27.9,222.5z"/>
	<path class="st3" d="M27.9,271.7v-48l55.6-0.9L27.9,271.7z"/>
	<path class="st4" d="M211,6.8l46.4,0.6l-11.2,32.8L211,6.8z"/>
	<path class="st5" d="M266.9,40.9l6-13.6l19.5-14.7l15.1,4L266.9,40.9z"/>
	<path class="st5" d="M246.9,40.9l8.1-23.3l17.1,9.3l-6,14.1L246.9,40.9z"/>
	<path class="st5" d="M272.2,26.5L255,17.2l2.8-9.7L272.2,9l19.5,3.5L272.2,26.5z"/>
	<path class="st6" d="M1.7,297.4L117,194.8l52.5,15.8L110,576.2L1.7,297.4z"/>
</g>
</svg>
