<?xml version="1.0" encoding="utf-8"?>
<!-- Generator: Adobe Illustrator 22.0.0, SVG Export Plug-In . SVG Version: 6.00 Build 0)  -->
<svg version="1.1" id="vector" xmlns="http://www.w3.org/2000/svg" xmlns:xlink="http://www.w3.org/1999/xlink" x="0px" y="0px"
	 viewBox="0 0 1000 999" enable-background="new 0 0 1000 999" xml:space="preserve">
<path id="Krhth" fill="#F2F2F2" d="M994,490.2c-22.5-8.7-9.7-38.7-9.7-38.7c-16.5,4.1-30.6,16.9-33.7,29.7
	c-13.7,10.3-24.7,13.4-27.5,1.6c-48.4-10-86.8,44.3-123,38.4c-55.6-9.4,19.7-66.2-10.9-57.4c-7.2-11.5-2.2-22.8,9.7-32.8
	c-51.8-11.5-112.4,3.4-152.9-0.6c-42.8-4.4-85.2-25.3-103-28.7c-57.7-11.9-284.7,60.2-276.2-32.1c-25.3,1.2-40.6,15.9-65.2-12.2
	c66.8-10.3,41.2-32.1,9.4-20.3c-17.8,13.1-40.6,17.2-67.7,11.5c-38.7-8.7-54-39.6-56.2-69c0,49-33.1,124.9-48.1,32.1
	C26.7,356.3,9.5,441.9,11.1,446.2c39.3,63.7,487.9,10,426.4,158.9c127-1.9,239.4-24.7,366.8-32.1C884.4,567.6,977.1,592,994,490.2z"
	/>
</svg>
