<?xml version="1.0" encoding="utf-8"?>
<!-- Generator: Adobe Illustrator 22.0.0, SVG Export Plug-In . SVG Version: 6.00 Build 0)  -->
<svg version="1.1" id="vector" xmlns="http://www.w3.org/2000/svg" xmlns:xlink="http://www.w3.org/1999/xlink" x="0px" y="0px"
	 viewBox="0 0 1000 999" enable-background="new 0 0 1000 999" xml:space="preserve">
<path id="Sterea" fill="#F2F2F2" d="M933.2,756.8c0.3-0.8-9.8-22.9-34-10.5c-1.1-5.3-7.6-3.4-7.6-4.2
	c-7.1-56.4-61.9-132.8-156.3-27.9c-35.1-11.3-45.6-48-45.6-48s39.8-31.6,39.5-32.4c-11.3-10.3-7.9-14.5-7.9-14.5
	c4.5,2.6,9.5-5,7.6-5.3c-11.9-1.8-116-28.5-131.5-32.7c-2.9-10.5,7.1-14,6.1-14.8c-21.9-12.7-62.2-20-113.3-61.7
	c-6.1,0.8-5.3,24-6.3,24.5c-11.9,6.1-38.7,16.6-58,22.1c-0.8,0.3-1.6,0-2.1-0.5c-49.3-59.6-225.1-1.8-225.4-2.1
	c0,0-37.4-57.7-69.6,2.9h-0.3c-9.8,4.5-17.9,1.6-30-6.3c-0.8-0.5-1.1-1.6-0.8-2.4C118.2,451.9,12,383.6,12,383.6
	c0-79.3,108.6-47.2,108.3-49c-25.8-23.2,97.5-139.2,122-123.1c69.3,46.1,92.5,48.2,139.4,30.8c39-14.5,46.7-58.2,80.1-30.8
	c53.2,43.8,193.7,86.7,193.7,86.7s-145.8,35.3-130.2,41.9c68.8,19.5,100.7,47.4,101.5,47.2c48.8-17.9,82,31.4,89.9,29.3
	c37.4,1.8,55.1,15.3,33.2,46.9c1.3,1.1,15,17.9,16.1,17.9c91.2-6.1,45.9,20,101.7,59.6c38.7,27.4,95.7,15.3,117.6,69.1
	c0.3,0.8,0.3,1.6-0.3,2.1c-5.8,6.6-19.5,89.4-19.2,89.6c0.3,0.3,15.3,6.6,10,20.6c0,0.3,12.1,32.7,12.1,32.9
	C989.8,805.3,941.1,814,933.2,756.8z"/>
</svg>
