<?xml version="1.0" encoding="utf-8"?>
<!-- Generator: Adobe Illustrator 22.0.0, SVG Export Plug-In . SVG Version: 6.00 Build 0)  -->
<svg version="1.1" id="vector" xmlns="http://www.w3.org/2000/svg" xmlns:xlink="http://www.w3.org/1999/xlink" x="0px" y="0px"
	 viewBox="0 0 1000 999" enable-background="new 0 0 1000 999" xml:space="preserve">
<path id="ionioi_nisoi" fill="#F2F2F2" d="M155.6,572.7c12,2.4,22.2,10.5,27.5,22.1c-10.6-3.5-16.7-6.9-16.8,6.6
	C143,590.9,137.9,550.2,155.6,572.7z M135.3,483.9c5.3,17.2,1.4,28,12.1,28.1c32.7,41.2-18.1,34.1-23.7,12.3c1.6,0.8,3.2,1.8,4.6,3
	c-1.8-4.8-5.6-11.1-8.4-15.3c-3.6,31.7-13.1,6.6-4-12.3c0.5,3.4,1.4,4.3,3.1,0.1c1,1.9,2,3.8,3.1,5.8l1-1.2c5.7,3.5,8-0.8,7.6-8.7
	l2.3,1C130.4,490.3,130.6,485.3,135.3,483.9z M146.8,482.3c-0.3,1.3-0.8,2.4-1.5,3.5c2.9,5.8,5.6,11.3,4.7,10.9h2.3l-0.8-1
	c1.9,0.4,3.5,1.5,4.7,3c-0.4,1.5-2.2,4,0.7,6.9c-9.5-2.1-15.1-11.3-16.2-22.7C142.9,481.5,144.7,480.1,146.8,482.3z M173.1,473.1
	c-1.5-2.1,0.5-5.5,3.8-7.9C174.7,467.4,173.4,470.1,173.1,473.1z M169.8,468c1.4-2.1-0.1-7.5,7.5-9.8
	C176.7,462.8,173,463.4,169.8,468z M159.7,455.6c-1.6,2.2-2.2,5.6,1.3,10.8C154.3,462,151.9,457.8,159.7,455.6z M149.6,453.8
	c1.2-0.2,2.2-1.7,2.7-3.5c-0.3,7.9-1,11.6-2.3,12.9l-1.6-1c-2.7,1.7-4,1.9-4.6,5.9c-1.7,0.2-4.5-5-5.1-6.2c-1.5,1.9-5,7.5-6.5,8.3
	c0-15.6,4.1-30.9,16-40.5C154.5,437.8,153.2,444.7,149.6,453.8z M97.6,386.4c0.6,1,1.4,1.8,2.4,2.3
	C96.6,387.7,92.9,386.4,97.6,386.4z M92.3,378.5l1.3,3.4c-3.8-2.6-7.4-1.5-8.6-8.2C89,373.3,88.6,376.6,92.3,378.5z M18.9,297.2
	c-2.1,0.2-3-1.3-2.8-3.6C17.3,294.6,18.2,295.8,18.9,297.2z M62.9,292.4c-4,9.4-13.3,21.1-3.3,27.6c-1.6,21.8,16.7,21.2,24.6,34
	c-6.2-2-17-4.8-23.3-8.6c3.3-3.1-0.1-4.1-3.6-4.5l-0.1,1.1c-3.8-16.9-19.1-30.5-25.4-38.2c0.7-2.9-0.1-4.8-3-4.9
	C37.9,289.2,51.1,286.8,62.9,292.4z M7,281.5 M24,279.6"/>
<path id="attiki" fill="#F2F2F2" d="M473.4,558.7c-4.5-5.7-9.5-7.4-16.2-5c0.9,0.8,2,1.5,3.1,2l-4,1.9c3.1,1.3,5.9,1,8.6-0.9
	C447.6,570.9,463.5,568.6,473.4,558.7z M494.8,583.9c-0.9,0.4-0.8,0.3-1.3,0.9C494.8,586.3,495.1,585.6,494.8,583.9z M537.6,587.2
	c-3.1,3.7-5,10.4-4.1,15.1C536.1,597.4,537.6,592.1,537.6,587.2z M516.2,600.9 M514,626.2c-6.9-3.4-2.4-0.2,1,2.2L514,626.2z
	 M461.1,705.7c-0.4-0.8-0.9-1.4-1.6-1.7C459.9,705.9,460.6,709.4,461.1,705.7z M508.4,716 M419.4,798.7
	c-4.7-7.3-12.4-10.8-16.8-18.9c-7.8,12.7-4.9,27.6,5.2,35.3C413.8,811.7,418.2,804.9,419.4,798.7z M446,853c-2.1-1.9-4.7-4-6.6-5.5
	C441.5,852.9,444.9,862.8,446,853z M427.1,656.6c-3.4-0.3-3.2-5.7-7.7-1.5C424.8,662.6,425.8,656.5,427.1,656.6z"/>
<path fill="#F2F2F2" d="M456.9,587.9c2.4-0.9,8.2-5,15.3-2.9C467.2,599.6,463.4,598.3,456.9,587.9z"/>
<path id="Pelopponisos" fill="#F2F2F2" d="M445.2,636c0,0-72.6-47.9-62.8-5.6c1.4,6.3-4.1,6.5,5.3,17c21.1,15.4,27.8,89.9,27.8,89.9
	c0.1,9.8,1.3,17,10.8,21.2c1.2,3.2,0,10.2,4.6,15.2c-14.5-5.3-33.2-32.1-42.5-32.6c3-27.5-27.2-8.4-34.5,8.8c-1,2.3-0.8,21-2.4,29.7
	c-9.6-9.4-13.8-37.8-11.6-44.3c-5.7-4.9-29.5-45.2-26.5-44.3c-23.9-7-32.5,17.9-20.6,31.9c-17.5,20.6-32.5-15.2-34.7-23.2
	c-19.1-26.1,3.3-28,3.8-50.5c0.5-20.4-27.8-54.5-43.2-45.6c4.6-23.2-22.7-21.2-22.9-33.7c-0.3-13.6,29.3-15.4,19.7-20.2
	c7.6-8.4,11.1-18.3,10.2-29.4c1.2,1.7,34.7,0.7,63.4-15.8c9.9-5.7,17.8,13.2,26.2,17.4c18.3,9.1,58.5,21.6,58.5,21.6
	s58.1,16.2,55,37.1c-0.4,2.9-3.7,12-0.2,22c2.6,6.5,10.1,13,20.8,13.8c-0.2-6.1-3.6-6.1-5.4-9.9c12.7-0.7,9.4,1.9,12.3,11.7
	c0.7,0.4-2.7,2.2-3,2.9C474.6,629.5,468.8,630.9,445.2,636z"/>
<path id="dytiki_makedonia" fill="#F2F2F2" d="M268.8,125.3c-11.7,9.2,8.8,39.7,13.8,40.3c-10.1,27.8,22,33.5,28.5,53
	c5.5,16.3-12.8,39.3-32.2,54c16.5,23.6-39.5,14.7-39.5,14.7s-17,3.7-23.1,3.3c-15.2-1.1-34.9-12.2-38.5-20.4
	c-9.5-21.8-15.2-61.6-23.6-53.9c1.6-23.3,26.2-59.9,39.2-69.5C208.5,135.6,246.6,135.4,268.8,125.3z"/>
<path id="thessalia_1" fill="#F2F2F2" d="M534.3,396.7c1.8,2,1.1,2.7-1.5,2.4c-0.4-2.1,0-4.6,1.9-6.1
	C534.7,394.5,534.6,395,534.3,396.7z M466.6,382l-0.9,2.8c-3.1,2.8-6.4,3.1-12.4,1.9C456.4,379.4,460.6,375.8,466.6,382z
	 M476.6,377.6c9.2,4.3,12.4,10.3,21.5,12.3c-12,11.4-20.2-0.1-21.6-13L476.6,377.6z M509.7,384.5c-1.9,2.5-4.2,3.2-7,2.2
	c4.6-6.8,9.3-13.9,13.9-20.8c0,0.8-0.3,1.5-0.8,2.1C517.1,371.8,514.6,378.7,509.7,384.5z M529.2,356.6l0.1,1.1
	c0.5-1.7,4.1,2-0.8,7.1C525.9,359.9,529.1,357.1,529.2,356.6z M558.6,356.6c-3,6.8-1.5,0.6-0.8-2.3
	C558.8,354.7,559.1,355.5,558.6,356.6z M541.4,352.2l-2.7,3.1c-1-2.7,0-6.3,2.2-9.5C542,347.8,542.3,350.2,541.4,352.2z
	 M376.1,271.4c14,17.9,21.6,40.1,34.6,58c8.7,11.9,58.7,54,21.6,59.4c-1.6,1.9-11.4,1.4-12.3,4c4.4-3.8,8.9-6.7,11.1-6.8
	c2.9-17.7-15.6-27.7-29.6-30.5c-0.4,2.8,0.8,5.7,0.8,8.4c-12.7,3-17.3,7.4-10,20.9c2.8-6.3,2.3-2.3,4.6-1.9c0,0,2.7,5.9,4.6,8.9
	c0.7-0.9,7.8,9,3.1,14.8c4.7-1.4,7-4.5,12.3-4.8c-10.7,18.8-66.4,9.5-65.2-11.2c-3.7-1.9-19.2-14.2-27.1-13.1
	c-6.7,0.9-9.2,11.3-17.1,15.7c-3.8,2.1-13.9,5.7-15.6,5.5c-1.9-0.3-2.8-2.4-3.5-2.7c-5.6-2.7-14.5,0.5-22.9-1.9
	c-7.8-2.2-12.5-16.2-16.2-17.2c-6.1-1.6-20.9,10.5-25.1,8.7c-9.7-4.3-1.3-13.4-5.8-19.6c-3.1-4.3-6-4.2-7.9-9.6
	c-4.9-13.8-25.1-47.4-2.7-45.9c-18.3-40.5,91.1-9.3,71-37.9c12.5-9.7,29.8-35.4,29.8-35.4S388.6,173.9,376.1,271.4z"/>
<path id="ipeiros" fill="#F2F2F2" d="M216.3,290.6c-7.5,5.2-13.6,5.3-8.4,19.9c-24.4-1.5,1.5,36.2,6.6,48.9
	c3.4,8.5,15.2,13.7,4.3,29.5c-9,13-11.3-2.5-26.4,13.8c5.5-5.9-15.5,3.4-14.7-4.9c-8-1.6-6.1,0.9-7,4.9l-4.7-0.1
	c2-1.6-0.4-11.9-3.7-9.8c0,0-3.5,5.5-6.1,12c0,0,5.3,5.7,8.4,8.4c-2.6,0.5-8.7,1.7-10.9,2c-3.5-19.1-28.7-29.3-28.5-48.3
	c-14.3,2.2-25.6-11.1-30-23c3-3.7,9.2-1.8,0-8c7.8-2.3-6.8-6-9.3-5.1c1.4-1.6,1.9-3.7,1.5-5.9c5.2-7.8,3.7-11,11.2-13.5
	c1.9-27.2,24.7-14.1,5.8-47.6c9.7-7.7,30.9-7.4,39.9-16.8c5.6-5.8,5.2-23.2,9.9-30.7c23.4-7.1,20.9,26.4,25.7,41.5
	C185,274.1,194,284.2,216.3,290.6z"/>
<path id="voreio_aigaio_1" fill="#F2F2F2" d="M782.7,604.1c-11.8,9.6-24.2,15.2-38.7,16.8c4.4-22,27.5-15.8,43.5-24.2
	C786.3,599.4,784.7,601.9,782.7,604.1z M854.3,586.6l1.2,1.3c0.4-2.1-0.5-4.2-2.3-5.8c2.1,1.1,4,0.7,5.4-1.1
	c1.3,2.7,4.7,3.7,8.4,3.1c-4.2,1.1-4.8,3.4-2.3,6.8c-15.9,15.4-36-3.1-50.6,7.1C809.4,576.5,839.7,574.6,854.3,586.6z M779.7,481.1
	 M770.6,475.3c2,2.5,6,0,5.7,3.4C769,477.8,769,473.4,770.6,475.3z M693,475.5 M754.2,468.2l4.7,5.8c7.9-4.6,5.2,1.7,1.5,8
	c0.4,1.1,1.2,1.7,2.4,1.9l-0.7,0.9c6.6,16.5-8.2,59.7-27.8,35.5v-3.9c4.1-4,6-14,7.4-22.4C742.7,488.2,710.1,447.7,754.2,468.2z
	 M700.4,464.1c4.9,6,4,10-3.2,11c-1.7-4.2-5.3-9.8-1.6-8.9C697.7,464.7,698.8,464.2,700.4,464.1z M793.1,361.3
	c-1.9,8.7,4.3,16.6,14.4,22.5c13.9,22.5,1.5,22.3-11.6,9.1c35.8,27.2-26.5,15.4-39.3,2.9c9.6-2.7,14-9.6,23.2-13.6
	c-17.3-11.2-27.7,28-48.5,1.8c-10-12.5,11.2-20.8,20.7-20.1c6.2-1.6,12.3,0.2,13.1-11C778.7,349.9,788.1,352.5,793.1,361.3z
	 M633.1,340c0.9-5.1-3.2-8.5,0.6-13.9c1.9,0.7,3.7,1.7,5.7,2.5C638.4,332.7,633.8,336.3,633.1,340z M683.3,258.6
	c-1.6,4.3-7,16.8-7.7,18.1c0.2,3.9-2.2,10.7-2.2,16.4c-5-3.5-8.2-6.1-12.4-10.3c5.4-7.7,4.1-9.8-4.7-5.1c1.3-0.3,2.3,0,3.1,1
	c-3,0.6-4.8,2.8-5.4,6c0.5,0.8,4.8,1.2,4.2,6.1c0.4,0.7-9.3-2.2-8-2c1.2-2.3,3.5-3.8,2.4-6.2c-5.9,3.3-4.5,0.7-13.2,3.2
	c0.3-1.4,1.1-2.4,2.3-3c-2-4.4-2.2-12.8-3.9-20.2c11.8-3.9,22-2.3,28.4,6.2c5.9-5.8,11-9.2,18.5-12.2
	C684.4,257.4,683.9,258.1,683.3,258.6z"/>
<path id="skiathos" fill="#F2F2F2" d="M598.1,436.3c-11.2-13-22.2-36.5-27.5-10.7c1.6-1.5,2.9-1,3.9,1l0.8-1c1.2,2,2,3.2,3,4.9
	c6.6-0.5,8.8,1.3,3.1,7l3.9,4.8C589.8,442,594.6,440.2,598.1,436.3z"/>
<path id="Evoia" fill="#F2F2F2" d="M586.6,536.3l1-7.2c-47,14.7-46.3-51.9-48.6-70.9c-42.2-13.3-50.6-14.9-81.8-40.5
	c-15.5-12.7-12.2-17.2-37.8-8c-4.7,1.7-25,18.3-29.4,23.9c9.3-3.6,13.8-7.8,20.8-7.2c21.2,4.1,77.8,37.7,64.9,60.5
	c1,0.3,1.8-0.1,2.3-1.1c9.8,12,31.8,10,48.2,8.6c3.4,4.6,3.4,8.3-1.9,10.2c7.2-0.5,11.4,1.3,8.5,7.9c2.5-0.1,12.3,18.4,11.6,26.5
	c10,1.2,15.4,6.9,20.6,17.2c1.6-0.9,2.7-4.8,4.8-7.3C581.5,563.4,588.3,552.4,586.6,536.3z"/>
<path id="Krhth" fill="#F2F2F2" d="M782.9,945.3c-7.2-2.8-3.1-12.4-3.1-12.4c-5.3,1.3-9.8,5.4-10.8,9.5c-4.4,3.3-7.9,4.3-8.8,0.5
	c-15.5-3.2-27.8,14.2-39.4,12.3c-17.8-3,6.3-21.2-3.5-18.4c-2.3-3.7-0.7-7.3,3.1-10.5c-16.6-3.7-36,1.1-49-0.2
	c-13.7-1.4-27.3-8.1-33-9.2c-18.5-3.8-91.2,19.3-88.5-10.3c-8.1,0.4-13,5.1-20.9-3.9c21.4-3.3,13.2-10.3,3-6.5
	c-5.7,4.2-13,5.5-21.7,3.7c-12.4-2.8-17.3-12.7-18-22.1c0,15.7-10.6,40-15.4,10.3c-3.9,14.3-9.4,41.7-8.9,43.1
	c12.6,20.4,156.3,3.2,136.6,50.9c40.7-0.6,76.7-7.9,117.5-10.3C747.8,970.1,777.5,977.9,782.9,945.3z"/>
<path id="Kentrikh_Makedonia" fill="#F2F2F2" d="M564.8,236.5c0.7,1.3-0.3,2.9-1.7,2.7c-16.3-1.2-55.7-53-72.9-28.8
	c-10.3,14.5,32.5,35.1,32.8,44.5c-0.4,6-1.4,8.1-4.9,11c-1.5,1.2-15.3-5.8-16.2-6.6c-13.7-13-48.7-60.5-54.4-27.4
	c-2.4,13.7,28.9,29.4,42,37.2c1.5,0.9,1,3.2-0.7,3.4c-12.4,1.5-23.9-7.1-37.3-5.7c-1,0.1-1.9-0.6-2-1.6
	c-4.7-32.5-16.2-50.1-51.4-60.5c-0.7-0.2-1.3-0.9-1.3-1.6c-0.1-3.3-3.5-9.6-5.9-13.3c-0.7-1.2,0-2.7,1.4-2.8
	c24.8-2.8,2.6-26.1-4.1-12.2c-2.3,4.7-16.5,14.1-23.7,16.8c-1.2,0.4-1.6,1.9-0.8,2.9c14.7,19.6-33.3,23.6-51.9,39.6
	c-1.1,1-2.8,0.3-3-1.2c-1.2-8.8-5-33.4-31.8-47c-16.3-8.3-14.9-57.8-7.9-60.4c0.4-0.2,27.1-19.3,39.3-26.8
	c32.7-19.9,61.1-31.9,85-38.8c43.4-12.6,72.1-8.3,85.6-3.4c0.4,0.2,0.8,0.5,1,0.9c8.6,16.6,12.9,25.3,30.4,40.4
	c9.1,7.8,28.9,16,23.2,30.9c-11.3,29.4-72.1,21.4-24,52.7c1.2,0.8,1.1,2.5-0.1,3.2c-15.8,9,8.4,29.1,11.2,14.4c0.3-1.4,2-2,3.1-1
	C537.2,210.1,554.1,216.7,564.8,236.5z"/>
<path id="anatoliki_makedonia_kai_thraki" fill="#F2F2F2" d="M709.8,189.9c2.6,17.2-16.9,15.2-25.8,0.9
	C692.2,185.3,701,184.8,709.8,189.9z M609.6,170.2c-40,29.9-24.8-53.1,0.4-17C607.7,156.4,607.6,162.2,609.6,170.2z M505,146.3
	c75.1-22.1-21.2-52.5-22.4-78.1c-17.8-53.3,71.1-36,83.4-33.6c15.3,3,62.7,25.8,86,33.2c18.1,5.8,20.9,5.5,41.9,0.5
	c17.5-4.2,51.5,6.3,66.1-8.1c19.2-18.9-11.8-34.2-7.5-45.7c11.3-30.6,50.1,5.4,61.4,7.2c0.8,10.6,8.5,30.9,3,40.9
	c-1.4,2.5-29.8,6.9-34,14.2c-10.4,18.2,11.8,34.6-1.8,50.4c-5.8-0.1-5.8,1.4-8.8,1.4c-2.5,10.5-10.3,19.7-20.5,24
	c0-4-4.3-11.6-4.3-11.7c-18.8-9.6-98.2-10.6-94.2-26.7c-20.5-3.1-33.2,20.7-53.2,19.5c-15.4-0.9-21.7-27.4-43.3-2.2
	c-0.8,3.4-1.1,5.9,3.1,7.3C541.3,151.5,524.9,162.3,505,146.3z"/>
<path id="notio_aigaio" fill="#F2F2F2" d="M859.3,914c-4.5,4.6-8.7,9.7-17,7.2C848.9,913.7,856,914.2,859.3,914z M885.1,860.7
	c-6.8,17.7-7.2,31.3,0.4,46.7c-7.9-1.9-4.7,3.7-8.5,6.6c0.3-0.9,0.8-1.2,1.6-0.9c-0.8,1.8-2.1,3.1-3.9,3.8
	C872.4,908.2,865.5,855.3,885.1,860.7z M928.6,803.5c-2.6-0.6-7.7,1.1-10.8,0.4C923,797.2,926.2,802.9,928.6,803.5z M940.6,796.2
	 M730.4,783.4c-4.4-0.4-8.7,2.2-14.1-2.3C723.3,776.4,723.6,782.8,730.4,783.4z M999,773.7c-4.4,17.8-21.4,39.4-16.9,52.8
	c-20.3-4.5-23.7,27.8-39.8,19.7c-4.8-2.4,3.8-26.5-5.8-34.1C954,798.2,975.1,768.8,999,773.7z M689.2,781.4c-3,6.7-8.1,7.2-14.4,3
	c4.5-7.2,13.3-8.1,0.8-16.4C686.6,768.1,684.7,774.2,689.2,781.4z M900.9,768.2c3.5,5.6,1,9.7,8.4,8.4c-8.5,5.1-14.1,1.3-16.1-8.6
	C895.3,769,898,768.9,900.9,768.2z M879,755.8c-1.2-3.5-12.1-2.1,1.3-7.7C884.6,752.7,878.8,755.1,879,755.8z M798.5,750.7
	c0.4,2.8,0,3.6-1.7,1c-8.9,9.9-17.7,14.8-20.1-0.9c7.2,4.1,8.9-0.1,15.5,0.9c-1.9-2.6-2.9-3.9-4.7-6.8
	C793,745.1,794.3,747.7,798.5,750.7z M952,746.9l-0.8,2c1.6-0.6,5.2-0.5,6.9-1c-0.2,2.5-0.8,6.8-1.5,8.6c-0.5,1-3.8,7.8-1.6,1.1
	c-2.3-0.6-4.4-1.5-6.4-2.7l1.8-1.2H945c1.4-2.6,3-4.9,4.6-6.8v1C953.5,745.2,959.9,740.8,952,746.9z M630,749.9
	c-4.7,0.1-10.6-3.5-13.9-8.8C621.7,741.7,626.9,745,630,749.9z M648.7,741.8c-1.8,2.4-4.2,3.5-7,3.1c1.7-7.3,6.2-11.5,13.3-11.4
	C653.8,736.5,651.4,739.6,648.7,741.8z M572.2,728.7c22.1,3.3,4.6,17.5-13.9,14.4c-0.4-6.2,0.2-9.6,3-14.5c4.6,3.7,9.7,4.5,13.2,7
	C567.2,729.2,571.9,726.6,572.2,728.7z M595.7,729.1c-0.9-1.9-6.8-0.4-4.2-6.2C596.7,723.2,594.2,726.1,595.7,729.1z M679.1,732.3
	l1.1,2.2c-1,2.2-3.1,4.7-4.1,8.2c-5.1-2.2-8.6-7-10.5-10.2c-1.1,0.2-2.1,0.2-3.2,0c1.4-4.7,1.5-7,6.3-9.6
	C671.3,728.9,675.5,728.4,679.1,732.3z M586.8,716.7c0.9,0.5,1.7,0.3,2.3-0.6C581.7,723.2,579.4,724.9,586.8,716.7z M685.6,718.7
	c-6.1-1.5-2.5-4.1,2.4-6.5C688.4,714.2,687.8,716.6,685.6,718.7z M880.8,720.4c-12.3,5-23.3,6.3-24.5,18.8
	c-14.8-16,27.2-38.9,43.1-25.9C893.3,715.7,887,718.3,880.8,720.4z M710,711c-2.5-0.2-4.9-0.4-7.4-0.6
	C706.4,706,709.1,705.6,710,711z M755.1,708.4c-13.8,3.4-23.8,19.8-37.8,14.5c5,0.2,10.1-1.8,14-5.8c-1.3,2.7,11.6-12.1,9.9-10.7
	C746.5,701.2,749.1,704.3,755.1,708.4z M877.7,700c0.1,1.7,0.2,3.1,0.6,4.9C871.7,702.5,869.5,700.5,877.7,700z M642.2,699.1l1,1.6
	c-1.9-6.3-11.4-8.2,0.8-12.6C642.1,691.8,641.4,696.2,642.2,699.1z M595.3,687.1c10.3,4.1,14.6,11,6.2,20.4
	c-2.9-6.9-5.5-14.2-6.9-19.4C593.4,687.4,593.4,687.1,595.3,687.1z M870.9,685.4l0.4,1C868.5,685.8,866.5,685.2,870.9,685.4z
	 M856.3,688.1c2,1.6,3.3,3.4,3.9,5.8c3.7,0.7,4.6,4.9,4.5,5.8c-4.7,4.1-9.8,5-15.3,1.9c5.2-8.6,3.9-14.7-2.5-20.3
	C851.7,683.5,856.8,686.4,856.3,688.1z M727.4,676.5c1.9,3,1,4-2.4,2.9c-1,2.2-2,1-3-2.9c2.2,0.3,4.3-0.4,6.1-2L727.4,676.5z
	 M665.6,676.5c3.8,16.7-26,27-13.9,4.8c-0.7-0.6-1.5-0.8-2.3-0.6c2.7-4.1,6.8-7,11.6-8.2C663.2,673,664.7,672.7,665.6,676.5z
	 M838.8,666.5c2.6,3.6,6.1,5.9,7.8,12.6c-6,2.4-3.6-2.5-3.9-2.7C836,673.7,832.9,670,838.8,666.5z M701.1,679.9
	c0.3,12.4-5.3,21.2-16.4,25.6c-5.3-7.1-8.1-15.4-12.1-23.2C681.9,670.8,697.4,657.7,701.1,679.9z M576.1,664.9
	c5.2,0.3,6.8,4.3,5.3,10.7c1.1-0.2-6.2,1.6-3.8,0.9c-1.3-1-2.7-1.1-3.9,0c-1-2-2.7-1.9-4.7,0c-0.3-3,0.5-5.6,2.4-7.7
	C571.2,666.8,573.3,665.4,576.1,664.9z M870.8,655.2c-2.9-1.3-2.9-2.6,0.2-3.6C869.9,653.2,870.1,654.2,870.8,655.2z M830,648.7
	c4.3,0.7,7,2.4,4.6,6.6C830.6,653.2,824.7,650.4,830,648.7z M810.8,641c1,6.3,2.5,3.8-0.1,14.2C803.8,649.2,808.9,646.1,810.8,641z
	 M828.5,637.3c2.9,1.3,4.1,3.1,2,5.7c-0.5-0.6-0.5-1.3-0.2-2C828.3,639.5,825.3,637.5,828.5,637.3z M851.7,626.6
	c7.5,1.4,10.8,2.6,3.7,3.1c-1.7,1.7-3-0.3-4.3-2.8L851.7,626.6z M574.3,633.5c0.8,6.2-3.4,12.6-11.4,16.7c3.7-6.9,4.3-12.2,0-14.5
	c1.8-4.5,4.1-8.4,8.5-10.7C568.5,631.2,572.9,629.6,574.3,633.5z M673.3,622c12.7,3.3,16.4,9.4-4.6,13.7
	C668.4,629.4,669.4,625.9,673.3,622z M630,637.1c-3.1,1.8-6.2,3.6-9.2,5.5c-1.4-4.7-1.8-5.2,0-8.8l-1.6-0.9
	c1.6-3.9,5.8-4.4,3.1-11.2C629.3,625.3,629.3,629.9,630,637.1z M797.5,609.6c0.9,5.3-2.4,4.3-6.1,2.3
	C793.3,610,795.6,609,797.5,609.6z M604.9,609.6c-3.1,0.5-6.4,0-9.2-1.6C600.5,604.4,604.6,602.7,604.9,609.6z M806.6,609.3
	c-2.7,3.6-4.5,5.2-3.2,10c-1.4-4.8-2.7-5.9-2.8-11.1c0.5-0.8,1.8,3.8,2.2,2.9c0.5-3.7,0.4-6.4,1.8-9.7
	C808.1,604.5,805.7,606,806.6,609.3z M643.5,601.8c2.4-1,5.2-0.2,7.4,2.8c3.1-2.6,7.1-1.8,10.8,0.9c0.6,23.4-23.3,5.2-29.3-7.7
	C641.7,596.6,639,599.6,643.5,601.8z M563.6,596.7c0.3,10,0.2,17.4-11.1,22c-1.6-10.3,2.4-14,6.5-20.1
	C557.8,596.6,561,596.9,563.6,596.7z M617,564.1c18.1,2.1,15.2,20.1,13,32.6c-5.2-7.5-13.9-13.6-18.5-18.5c-6.4-9-6.9-9.7-13-16.6
	C605.6,550.5,612.1,551.3,617,564.1z"/>
<path id="Sterea" fill="#F2F2F2" d="M511.5,583.7c0.1-0.3-3.7-8.7-12.9-4c-0.4-2-2.9-1.3-2.9-1.6c-2.7-21.4-23.5-50.4-59.3-10.6
	c-13.3-4.3-17.3-18.2-17.3-18.2s15.1-12,15-12.3c-4.3-3.9-3-5.5-3-5.5c1.7,1,3.6-1.9,2.9-2c-4.5-0.7-44-10.8-49.9-12.4
	c-1.1-4,2.7-5.3,2.3-5.6c-8.3-4.8-23.6-7.6-43-23.4c-2.3,0.3-2,9.1-2.4,9.3c-4.5,2.3-14.7,6.3-22,8.4c-0.3,0.1-0.6,0-0.8-0.2
	c-18.7-22.6-85.4-0.7-85.5-0.8c0,0-14.2-21.9-26.4,1.1c0,0-0.1,0-0.1,0c-3.7,1.7-6.8,0.6-11.4-2.4c-0.3-0.2-0.4-0.6-0.3-0.9
	c7.8-34.6-32.5-60.5-32.5-60.5c0-30.1,41.2-17.9,41.1-18.6c-9.8-8.8,37-52.8,46.3-46.7c26.3,17.5,35.1,18.3,52.9,11.7
	c14.8-5.5,17.7-22.1,30.4-11.7c20.2,16.6,73.5,32.9,73.5,32.9s-55.3,13.4-49.4,15.9c26.1,7.4,38.2,18,38.5,17.9
	c18.5-6.8,31.1,11.9,34.1,11.1c14.2,0.7,20.9,5.8,12.6,17.8c0.5,0.4,5.7,6.8,6.1,6.8c34.6-2.3,17.4,7.6,38.6,22.6
	c14.7,10.4,36.3,5.8,44.6,26.2c0.1,0.3,0.1,0.6-0.1,0.8c-2.2,2.5-7.4,33.9-7.3,34c0.1,0.1,5.8,2.5,3.8,7.8c0,0.1,4.6,12.4,4.6,12.5
	C533,602.1,514.5,605.4,511.5,583.7z"/>
</svg>
