<?xml version="1.0" encoding="utf-8"?>
<!-- Generator: Adobe Illustrator 22.0.0, SVG Export Plug-In . SVG Version: 6.00 Build 0)  -->
<svg version="1.1" id="Capa_1" xmlns="http://www.w3.org/2000/svg" xmlns:xlink="http://www.w3.org/1999/xlink" x="0px" y="0px"
	 viewBox="0 0 511.9 511.9" enable-background="new 0 0 511.9 511.9" xml:space="preserve">
<g>
	<path d="M445.9,44.1c-2.6-5.9-7.5-10.5-13.6-12.8C375.8,10.6,316.4,0,255.9,0C195.5,0,136.1,10.5,79.6,31.3
		c-6.1,2.2-11,6.9-13.6,12.8c-2.6,5.9-2.7,12.4-0.2,18.3l0,0c0,0,190.4,449.5,190.4,449.5c-0.2-6.2,190-449.5,190-449.5
		C448.6,56.5,448.5,50,445.9,44.1z M79.7,50.1c1-2.2,2.8-3.9,5-4.7C139.7,25.2,197.2,15,255.9,15c58.7,0,116.3,10.2,171.2,30.4
		c2.3,0.8,4.1,2.5,5,4.7c0.9,2.1,1,4.5,0.1,6.6l-11,26.8C367.9,65.3,312.3,56,255.9,56C199.6,56,144,65.3,90.7,83.5l-11-26.8l0,0
		C78.8,54.6,78.8,52.3,79.7,50.1z M256.1,484.7L112.8,137.1c15.5-15.8,30.9-24.5,48.3-27.3c4.1-0.7,6.9-4.5,6.2-8.6
		c-0.7-4.1-4.5-6.9-8.6-6.2c-18.7,3-35.8,11.9-52.1,27.2L96.4,97.4C147.9,79.9,201.5,71,255.9,71c54.4,0,108.1,8.9,159.6,26.4
		L403,127.9c-4.8-0.8-14.7-3.8-30.9-14.6c-5.6-3.8-11.2-7.1-16.6-10.1c-3.6-2-8.2-0.6-10.2,3c-2,3.6-0.6,8.2,3,10.2
		c5,2.7,10.2,5.9,15.5,9.4c15,10,25.9,14.4,33.4,16.2L256.1,484.7z"/>
	<path d="M239.4,159.5c0-4.1-3.4-7.5-7.5-7.5s-7.5,3.4-7.5,7.5c0,9.1-7.4,16.5-16.5,16.5s-16.5-7.4-16.5-16.5s7.4-16.5,16.5-16.5
		c4.1,0,7.5-3.4,7.5-7.5s-3.4-7.5-7.5-7.5c-17.4,0-31.5,14.1-31.5,31.5s14.1,31.5,31.5,31.5S239.4,176.9,239.4,159.5z"/>
	<path d="M295.9,288c-4.1,0-7.5,3.4-7.5,7.5c0,9.1-7.4,16.5-16.5,16.5s-16.5-7.4-16.5-16.5s7.4-16.5,16.5-16.5
		c4.1,0,7.5-3.4,7.5-7.5s-3.4-7.5-7.5-7.5c-17.4,0-31.5,14.1-31.5,31.5s14.1,31.5,31.5,31.5s31.5-14.1,31.5-31.5
		C303.4,291.4,300.1,288,295.9,288z"/>
	<path d="M303.9,160c-13,0-23.5,10.5-23.5,23.5S291,207,303.9,207s23.5-10.5,23.5-23.5S316.9,160,303.9,160z M303.9,192
		c-4.7,0-8.5-3.8-8.5-8.5s3.8-8.5,8.5-8.5s8.5,3.8,8.5,8.5S308.6,192,303.9,192z"/>
	<path d="M239.4,239.5c0-13-10.5-23.5-23.5-23.5s-23.5,10.5-23.5,23.5S203,263,215.9,263S239.4,252.5,239.4,239.5z M207.4,239.5
		c0-4.7,3.8-8.5,8.5-8.5s8.5,3.8,8.5,8.5s-3.8,8.5-8.5,8.5S207.4,244.2,207.4,239.5z"/>
	<path d="M255.9,352c-13,0-23.5,10.5-23.5,23.5S243,399,255.9,399s23.5-10.5,23.5-23.5S268.9,352,255.9,352z M255.9,384
		c-4.7,0-8.5-3.8-8.5-8.5s3.8-8.5,8.5-8.5s8.5,3.8,8.5,8.5S260.6,384,255.9,384z"/>
	<path d="M303.5,102.1c4.7,0.2,9.6,1,14.6,2.2c0.6,0.1,1.2,0.2,1.8,0.2c3.4,0,6.5-2.3,7.3-5.7c1-4-1.5-8.1-5.5-9
		c-5.9-1.4-11.7-2.3-17.4-2.6c-4.1-0.2-7.7,3-7.9,7.1C296.2,98.4,299.4,101.9,303.5,102.1z"/>
	<path d="M191.3,109.6c1.7,0.2,3.4,0.3,5.2,0.5c3.6,0.3,7.3,0.7,11,0.9c7.8,0.5,14.6,0.8,20.6,0.8c20.7,0,32.6-2.7,45-5.5l0.5-0.1
		c4-0.9,6.6-4.9,5.6-9s-4.9-6.6-9-5.7l-0.5,0.1c-14.9,3.4-29.1,6.6-61.3,4.4c-3.5-0.2-6.9-0.6-10.6-0.9c-1.7-0.2-3.5-0.3-5.2-0.5
		c-4.1-0.4-7.8,2.7-8.1,6.8C184.1,105.6,187.1,109.2,191.3,109.6z"/>
	<path d="M276.6,238.2l16,8c1.1,0.5,2.2,0.8,3.3,0.8c2.8,0,5.4-1.5,6.7-4.1c1.9-3.7,0.4-8.2-3.4-10.1l-16-8
		c-3.7-1.9-8.2-0.4-10.1,3.4C271.4,231.9,272.9,236.4,276.6,238.2z"/>
	<path d="M275.3,128.8c-3.7-1.9-8.2-0.4-10.1,3.4l-8,16c-1.9,3.7-0.4,8.2,3.4,10.1c1.1,0.5,2.2,0.8,3.3,0.8c2.8,0,5.4-1.5,6.7-4.1
		l8-16C280.5,135.1,279,130.6,275.3,128.8z"/>
	<path d="M367,173.1l-8-24c-1.3-3.9-5.6-6.1-9.5-4.7c-3.9,1.3-6.1,5.6-4.7,9.5l8,24c1,3.1,4,5.1,7.1,5.1c0.8,0,1.6-0.1,2.4-0.4
		C366.2,181.3,368.4,177.1,367,173.1z"/>
	<path d="M173.2,194.2c-2.9-2.9-7.7-2.9-10.6,0c-2.9,2.9-2.9,7.7,0,10.6l8,8c1.5,1.5,3.4,2.2,5.3,2.2s3.8-0.7,5.3-2.2
		c2.9-2.9,2.9-7.7,0-10.6L173.2,194.2z"/>
	<path d="M155.3,136.8c-3.7-1.9-8.2-0.4-10.1,3.4l-8,16c-1.9,3.7-0.4,8.2,3.4,10.1c1.1,0.5,2.2,0.8,3.3,0.8c2.8,0,5.4-1.5,6.7-4.1
		l8-16C160.5,143.1,159,138.6,155.3,136.8z"/>
	<path d="M221.2,290.2l-8-8c-2.9-2.9-7.7-2.9-10.6,0c-2.9,2.9-2.9,7.7,0,10.6l8,8c1.5,1.5,3.4,2.2,5.3,2.2s3.8-0.7,5.3-2.2
		C224.2,297.9,224.2,293.1,221.2,290.2z"/>
	<path d="M239.4,335.5c0-4.1-3.4-7.5-7.5-7.5h-8c-4.1,0-7.5,3.4-7.5,7.5s3.4,7.5,7.5,7.5h8C236.1,343,239.4,339.6,239.4,335.5z"/>
	<path d="M335.9,208c-4.1,0-7.5,3.4-7.5,7.5v8c0,4.1,3.4,7.5,7.5,7.5s7.5-3.4,7.5-7.5v-8C343.4,211.4,340.1,208,335.9,208z"/>
	<path d="M319.9,256c-4.1,0-7.5,3.4-7.5,7.5v8c0,4.1,3.4,7.5,7.5,7.5s7.5-3.4,7.5-7.5v-8C327.4,259.4,324.1,256,319.9,256z"/>
	<path d="M317.2,122.2c-2.9-2.9-7.7-2.9-10.6,0c-2.9,2.9-2.9,7.7,0,10.6l8,8c1.5,1.5,3.4,2.2,5.3,2.2s3.8-0.7,5.3-2.2
		c2.9-2.9,2.9-7.7,0-10.6L317.2,122.2z"/>
</g>
</svg>
